<?xml version="1.0" encoding="UTF-8"?><svg id="Layer_2" xmlns="http://www.w3.org/2000/svg" viewBox="0 0 460.79 380.13"><defs><style>.cls-1{stroke-width:14px;}.cls-1,.cls-2,.cls-3,.cls-4,.cls-5,.cls-6,.cls-7{stroke-miterlimit:10;}.cls-1,.cls-2,.cls-3,.cls-4,.cls-5,.cls-6,.cls-8{fill:none;}.cls-1,.cls-3,.cls-6,.cls-7,.cls-9,.cls-10,.cls-8{stroke:#000;}.cls-1,.cls-7,.cls-9,.cls-10,.cls-8{stroke-linecap:round;}.cls-2{stroke:#eacad9;}.cls-2,.cls-3{stroke-width:15px;}.cls-11{fill:#f4d9e4;}.cls-12{fill:#f99bb6;}.cls-4{stroke-width:4px;}.cls-4,.cls-5{stroke:#fff;}.cls-5,.cls-6,.cls-7{stroke-width:11px;}.cls-9{fill:#c9a47b;}.cls-9,.cls-10,.cls-8{stroke-linejoin:round;stroke-width:6px;}.cls-10{fill:#ffeb73;}</style></defs><g id="Layer_2-2"><circle class="cls-11" cx="195.89" cy="178.12" r="170.62"/><path class="cls-2" d="m100.49,33.44s173,150.11,205.34,270.19"/><path class="cls-2" d="m124.68,19.27s173,150.11,205.34,270.19"/><path class="cls-2" d="m80.35,52.4s173,150.11,205.34,270.19"/><path class="cls-2" d="m60.37,70.86s173,150.11,205.34,270.19"/><path class="cls-2" d="m215.37,109.5s58.07-40.46,55.41-84.72"/><path class="cls-2" d="m195.95,94.76c25.23-18.08,45.11-38.69,50.8-75.49"/><path class="cls-2" d="m236.99,123.73s58.07-40.46,55.41-84.72"/><path class="cls-2" d="m251.41,148.42s64.11-46.56,61.45-90.82"/><path class="cls-2" d="m110.27,322.59s49.91-39.55,89.47-95.79"/><path class="cls-2" d="m129.24,339.55s49.91-39.55,89.47-95.79"/><path class="cls-2" d="m158.32,348.74s39.12-28.04,78.67-84.27"/><path class="cls-2" d="m25.26,178.12s80.73,21.96,140.78,0"/><path class="cls-2" d="m25.26,148.22s57.2,25.28,117.26,3.32"/><path class="cls-2" d="m33.19,207.92s89.77,17.08,149.82-4.88"/><path class="cls-2" d="m33.19,229.65c1.06,4.26,104.4,26.13,162.7-2.85"/><path class="cls-2" d="m270.86,171.18s47.79-3.55,88-43.7"/><path class="cls-2" d="m286.02,193.03s32.44,1.09,77.33-33.76"/><path class="cls-2" d="m292.49,212.8s25.96,8.35,73.97-22.76"/><path class="cls-2" d="m259.1,149.33s47.79-3.55,88-43.7"/><path class="cls-2" d="m69.29,86.9s-22.07,41.6-16.09,69.69"/><path class="cls-2" d="m94.63,102.66s-20.76,32.21-14.78,60.3"/><path class="cls-2" d="m118.58,119.84s-16.46,12.58-10.48,40.67"/><path class="cls-2" d="m73.84,237.73s67.51,33.38,68.51,56.98"/><path class="cls-2" d="m129.24,241.57c1.9-.91,24.02,8.45,31.52,33.13"/><path class="cls-2" d="m44.51,252.27s73.06,33.38,74.06,56.98"/><path class="cls-2" d="m180.66,67.54c18.16-5.78,33.55-8.23,46.08-7.41"/><path class="cls-2" d="m160.76,46.59c15.98-9.5,64.16-16.31,79.1-11.36"/><path class="cls-2" d="m180.66,329.74s47.9-10.07,74.56-7.15"/><path class="cls-2" d="m205.84,303.63s14.24-6.76,40.91-3.84"/><path class="cls-2" d="m333.24,207.26c5.64,2.61.49,45.09,9.82,57.21"/><path class="cls-2" d="m312.86,86.9s21.36,22.46,20.38,27.11"/><path class="cls-2" d="m292.49,109.5s13.91.35,20.38,17.98"/><circle class="cls-3" cx="195.89" cy="178.12" r="170.62"/><path class="cls-6" d="m223.7,182.01c0,13.23-10.72,23.95-23.95,23.95s-23.95-10.72-23.95-23.95"/><path class="cls-1" d="m108.07,308.98c-5.11-.12-16.26,36.05-7.8,52.98,7.52,15.02-17.03,10.55-17.03,10.55"/><path class="cls-1" d="m292.49,308.09c6.33-5.03,25.23,46.06,23.94,53.27-1.19,6.68,16.81-2.15,16.81-2.15"/><ellipse class="cls-12" cx="94.63" cy="212.8" rx="16.21" ry="22.3" transform="translate(-134.11 256.58) rotate(-76.86)"/><ellipse class="cls-12" cx="307.5" cy="216.28" rx="22.3" ry="16.21" transform="translate(-36.78 65.28) rotate(-11.44)"/><circle class="cls-3" cx="195.89" cy="178.12" r="170.62"/><circle class="cls-7" cx="121.67" cy="148.22" r="21.18"/><circle class="cls-5" cx="124.81" cy="140.17" r="3.14"/><circle class="cls-4" cx="114.54" cy="154.37" r=".93"/><circle class="cls-7" cx="270.86" cy="147.36" r="21.18"/><circle class="cls-5" cx="274.01" cy="139.31" r="3.14"/><circle class="cls-4" cx="263.73" cy="153.5" r=".93"/><path class="cls-1" d="m417.36,229.88s-16.33,10.55-22.83,3.21c-12.5-14.12-30.19-30.42-30.19-30.42"/><path class="cls-1" d="m39.53,215.36S2.77,251.59,7.4,262.84c4.64,11.26,9.43,9.15,9.43,9.15"/><path class="cls-9" d="m420.86,132.69l-11.37,140.35c-4.98,11.14-10.37-.38-10.37-.38,0,0,7.61-135.44,11.37-140.35,0,0,3.73,6.41,10.37.38Z"/><path class="cls-8" d="m410.48,132.31l-18.82-21.41s30.33,6.7,43.92,1.18l-14.73,20.61"/><path class="cls-10" d="m391.67,110.9l-21.67-37.6s72.1,4.33,87.8,0l-22.2,38.78"/><line class="cls-8" x1="386.32" y1="74.13" x2="401.68" y2="112.08"/><line class="cls-8" x1="440.92" y1="76.97" x2="424.78" y2="112.08"/><line class="cls-8" x1="402.46" y1="76.02" x2="411.96" y2="112.08"/><line class="cls-8" x1="421.94" y1="75.19" x2="417.42" y2="114.01"/><line class="cls-1" x1="413.91" y1="229.88" x2="417.36" y2="229.88"/></g></svg>