<?xml version="1.0" encoding="UTF-8"?><svg id="Layer_2" xmlns="http://www.w3.org/2000/svg" viewBox="0 0 350.46 350.73"><defs><style>.cls-1,.cls-2,.cls-3,.cls-4,.cls-5{stroke-miterlimit:10;}.cls-1,.cls-2,.cls-6,.cls-4{stroke-width:15px;}.cls-1,.cls-2,.cls-6,.cls-5{fill:none;}.cls-1,.cls-6{stroke:#eacad9;}.cls-2,.cls-3,.cls-4,.cls-5{stroke:#000;}.cls-7,.cls-3,.cls-4{fill:#f4d9e4;}.cls-3,.cls-5{stroke-width:13px;}.cls-6{stroke-linejoin:round;}</style></defs><g id="Layer_3"><path class="cls-7" d="m7.52,300.8c-1.66,46.12,81.29,42.22,167.69,42.31,91.08.09,170.18,3.77,167.69-38.15-11.49-192.99-53.25-227.77-162.25-229.42C61.76,73.75,14.33,111.97,7.52,300.8Z"/></g><g id="Layer_2-2"><path class="cls-1" d="m241.55,117.32c16.95,23.43,27.24,31.87,27.24,31.87,0,0,8.23-9.53,25.18-32.97"/><path class="cls-1" d="m241.55,160.75c16.95,23.43,27.24,31.87,27.24,31.87,0,0,8.23-9.53,25.18-32.97"/><path class="cls-1" d="m293.97,157.61c16.95,23.43,31.81,37.86,31.81,37.86"/><path class="cls-1" d="m241.55,204.17c16.95,23.43,27.24,31.87,27.24,31.87,0,0,8.23-9.53,25.18-32.97"/><path class="cls-1" d="m293.97,204.17c16.95,23.43,27.24,31.87,27.24,31.87,0,0-2.73,5.33,14.22-18.11"/><path class="cls-1" d="m241.55,249.16c16.95,23.43,27.24,31.87,27.24,31.87,0,0,8.23-9.53,25.18-32.97"/><path class="cls-1" d="m292.14,249.16c16.95,23.43,27.24,31.87,27.24,31.87,0,0,2.65-1.89,19.6-25.33"/><path class="cls-1" d="m188.13,297.96c16.95,23.43,27.24,31.87,27.24,31.87,0,0,8.23-9.53,25.18-32.97"/><path class="cls-1" d="m189.13,163.6c16.95,23.43,27.24,31.87,27.24,31.87,0,0,8.23-9.53,25.18-32.97"/><path class="cls-1" d="m188.13,120.82c16.95,23.43,27.24,31.87,27.24,31.87,0,0,8.23-9.53,25.18-32.97"/><path class="cls-1" d="m188.13,78.04c16.95,23.43,27.24,31.87,27.24,31.87,0,0,8.23-9.53,25.18-32.97"/><path class="cls-1" d="m241.55,294.16c16.95,23.43,27.24,31.87,27.24,31.87,0,0,8.23-9.53,25.18-32.97"/><path class="cls-1" d="m293.97,294.16c16.95,23.43,27.24,31.87,27.24,31.87,0,0,3.62-3.21,20.57-26.64"/><path class="cls-1" d="m189.13,206.38c16.95,23.43,27.24,31.87,27.24,31.87,0,0,8.23-9.53,25.18-32.97"/><line class="cls-6" x1="293.97" y1="116.23" x2="296.48" y2="339.45"/><path class="cls-1" d="m189.13,251.06c16.95,23.43,27.24,31.87,27.24,31.87,0,0,8.23-9.53,25.18-32.97"/><path class="cls-1" d="m190.88,75.48c0,3.35-5.65,267.75-5.65,267.75"/><path class="cls-1" d="m135.71,297.96c16.95,23.43,27.24,31.87,27.24,31.87,0,0,8.23-9.53,25.18-32.97"/><path class="cls-1" d="m136.71,163.6c16.95,23.43,27.24,31.87,27.24,31.87,0,0,8.23-9.53,25.18-32.97"/><path class="cls-1" d="m83.22,163.6c16.95,23.43,27.24,31.87,27.24,31.87,0,0,8.23-9.53,25.18-32.97"/><path class="cls-1" d="m31.61,166.98c16.95,23.43,27.24,31.87,27.24,31.87,0,0,8.23-9.53,25.18-32.97"/><path class="cls-1" d="m135.71,120.82c16.95,23.43,27.24,31.87,27.24,31.87,0,0,8.23-9.53,25.18-32.97"/><path class="cls-1" d="m83.22,120.82c16.95,23.43,27.24,31.87,27.24,31.87,0,0,8.23-9.53,25.18-32.97"/><path class="cls-1" d="m39.88,132.71c16.95,23.43,18.97,22.18,18.97,22.18,0,0,8.23-9.53,25.18-32.97"/><path class="cls-1" d="m90.38,88.45c16.95,23.43,17.27,21.47,17.27,21.47,0,0,8.23-9.53,25.18-32.97"/><path class="cls-1" d="m135.71,78.04c16.95,23.43,27.24,31.87,27.24,31.87,0,0,8.23-9.53,25.18-32.97"/><path class="cls-1" d="m136.71,206.38c16.95,23.43,27.24,31.87,27.24,31.87,0,0,8.23-9.53,25.18-32.97"/><path class="cls-1" d="m83.22,206.38c16.95,23.43,27.24,31.87,27.24,31.87,0,0,8.23-9.53,25.18-32.97"/><path class="cls-1" d="m31.61,208.34c16.95,23.43,27.24,31.87,27.24,31.87,0,0,8.23-9.53,25.18-32.97"/><path class="cls-1" d="m83.22,249.71c16.95,23.43,27.24,31.87,27.24,31.87,0,0,8.23-9.53,25.18-32.97"/><path class="cls-1" d="m29.51,253.15c16.95,23.43,27.24,31.87,27.24,31.87,0,0,8.23-9.53,25.18-32.97"/><path class="cls-1" d="m81.93,297.96c16.95,23.43,27.24,31.87,27.24,31.87,0,0,8.23-9.53,25.18-32.97"/><path class="cls-1" d="m29.51,297.96c16.95,23.43,27.24,31.87,27.24,31.87,0,0,8.23-9.53,25.18-32.97"/><path class="cls-1" d="m136.71,251.06c16.95,23.43,27.24,31.87,27.24,31.87,0,0,8.23-9.53,25.18-32.97"/><path class="cls-1" d="m138.46,75.48c0,3.35-5.65,267.75-5.65,267.75"/><line class="cls-6" x1="241.55" y1="338.18" x2="241.55" y2="88.45"/><line class="cls-1" x1="86.12" y1="90.37" x2="81.93" y2="336.93"/><line class="cls-1" x1="31.1" y1="152.69" x2="31.61" y2="329.83"/><path class="cls-4" d="m158.81,75.1c-11.51-5.95-19.37-17.96-19.37-31.81,0-19.77,16.02-35.79,35.79-35.79s35.79,16.02,35.79,35.79c0,14.15-8.21,26.39-20.13,32.19"/><path class="cls-3" d="m51.43,285.02s-11.82,40.03-3.86,53.16"/><path class="cls-3" d="m80.02,341.59s2.87-45.3,6.1-50.98"/><line class="cls-3" x1="122.1" y1="296.87" x2="118.51" y2="336.93"/><path class="cls-3" d="m159.46,296.87s-2.35,35.78,3.45,42.58"/><line class="cls-3" x1="200.06" y1="298.87" x2="200.06" y2="338.18"/><path class="cls-3" d="m232.75,300.67s5.03,39.39,5.03,40.92"/><path class="cls-3" d="m271.19,298.87s7.54,33.36,6.83,39.31"/><path class="cls-3" d="m304.6,293.06s10.63,32.25,10.96,39.58"/><path class="cls-5" d="m10.51,284.2c.05-6.38,171.26,34.47,332.98-.59"/></g><g id="Layer_1-2"><path class="cls-2" d="m7.52,300.8c-1.66,46.12,81.29,42.22,167.69,42.31,91.08.09,170.18,3.77,167.69-38.15-11.49-192.99-53.25-227.77-162.25-229.42C61.76,73.75,14.33,111.97,7.52,300.8Z"/></g></svg>