<?xml version="1.0" encoding="UTF-8"?><svg xmlns="http://www.w3.org/2000/svg" viewBox="0 0 979.73 380.13"><defs><style>.cls-1{stroke-width:14px;}.cls-1,.cls-2,.cls-3,.cls-4,.cls-5{fill:none;stroke-miterlimit:10;}.cls-1,.cls-3,.cls-4,.cls-5{stroke:#000;}.cls-1,.cls-4{stroke-linecap:round;}.cls-2{stroke:#eacad9;}.cls-2,.cls-3{stroke-width:15px;}.cls-6{fill:#f4d9e4;}.cls-7{fill:#f99bb6;}.cls-8{font-family:Comic-Story, 'Comic Story';font-size:110px;}.cls-4,.cls-5{stroke-width:11px;}</style></defs><g id="Layer_3"><circle class="cls-6" cx="216.11" cy="178.12" r="170.62"/></g><g id="Layer_2"><path class="cls-2" d="m120.71,33.44s173,150.11,205.34,270.19"/><path class="cls-2" d="m144.9,19.27s173,150.11,205.34,270.19"/><path class="cls-2" d="m100.57,52.4s173,150.11,205.34,270.19"/><path class="cls-2" d="m80.59,70.86s173,150.11,205.34,270.19"/><path class="cls-2" d="m235.59,109.5s58.07-40.46,55.41-84.72"/><path class="cls-2" d="m216.17,94.76c25.23-18.08,45.11-38.69,50.8-75.49"/><path class="cls-2" d="m257.21,123.73s58.07-40.46,55.41-84.72"/><path class="cls-2" d="m271.63,148.42s64.11-46.56,61.45-90.82"/><path class="cls-2" d="m130.49,322.59s49.91-39.55,89.47-95.79"/><path class="cls-2" d="m149.46,339.55s49.91-39.55,89.47-95.79"/><path class="cls-2" d="m178.54,348.74s39.12-28.04,78.67-84.27"/><path class="cls-2" d="m45.48,178.12s80.73,21.96,140.78,0"/><path class="cls-2" d="m45.48,148.22s57.2,25.28,117.26,3.32"/><path class="cls-2" d="m53.41,207.92s89.77,17.08,149.82-4.88"/><path class="cls-2" d="m53.41,229.65c1.06,4.26,104.4,26.13,162.7-2.85"/><path class="cls-2" d="m291.08,171.18s47.79-3.55,88-43.7"/><path class="cls-2" d="m306.24,193.03s32.44,1.09,77.33-33.76"/><path class="cls-2" d="m312.71,212.8s25.96,8.35,73.97-22.76"/><path class="cls-2" d="m279.32,149.33s47.79-3.55,88-43.7"/><path class="cls-2" d="m89.51,86.9s-22.07,41.6-16.09,69.69"/><path class="cls-2" d="m114.85,102.66s-20.76,32.21-14.78,60.3"/><path class="cls-2" d="m138.8,119.84s-16.46,12.58-10.48,40.67"/><path class="cls-2" d="m94.07,237.73s67.51,33.38,68.51,56.98"/><path class="cls-2" d="m149.46,241.57c1.9-.91,24.02,8.45,31.52,33.13"/><path class="cls-2" d="m64.73,252.27s73.06,33.38,74.06,56.98"/><path class="cls-2" d="m200.88,67.54c18.16-5.78,33.55-8.23,46.08-7.41"/><path class="cls-2" d="m180.98,46.59c15.98-9.5,64.16-16.31,79.1-11.36"/><path class="cls-2" d="m200.88,329.74s47.9-10.07,74.56-7.15"/><path class="cls-2" d="m226.06,303.63s14.24-6.76,40.91-3.84"/><path class="cls-2" d="m353.46,207.26c5.64,2.61.49,45.09,9.82,57.21"/><path class="cls-2" d="m333.08,86.9s21.36,22.46,20.38,27.11"/><path class="cls-2" d="m312.71,109.5s13.91.35,20.38,17.98"/></g><g id="Layer_1"><circle class="cls-3" cx="216.11" cy="178.12" r="170.62"/><path class="cls-4" d="m114.85,178.12c10.07-31.19,37.06-31.73,47.89-1.25"/><path class="cls-5" d="m243.92,182.01c0,13.23-10.72,23.95-23.95,23.95s-23.95-10.72-23.95-23.95"/><path class="cls-4" d="m275.44,176.12c10.07-31.19,37.06-31.73,47.89-1.25"/><path class="cls-1" d="m128.29,308.98c-5.11-.12-16.26,36.05-7.8,52.98,7.52,15.02-17.03,10.55-17.03,10.55"/><path class="cls-1" d="m312.71,308.09c6.33-5.03,25.23,46.06,23.94,53.27-1.19,6.68,16.81-2.15,16.81-2.15"/><path class="cls-1" d="m386.68,190.04c5.55,2.45,23.14,17.06,30.78,29.13,3.31,5.24,4.96,11.15,1.54,16.4h0"/><path class="cls-1" d="m8.41,152.35c-3.36,9.24.32,17.72.32,17.72,3.04,3.48,6.66,7.09,10.96,10.56,16.8,13.56,35.02,17.89,46.23,19.44"/><ellipse class="cls-7" cx="114.85" cy="212.8" rx="16.21" ry="22.3" transform="translate(-118.49 276.27) rotate(-76.86)"/><ellipse class="cls-7" cx="327.72" cy="216.28" rx="22.3" ry="16.21" transform="translate(-36.38 69.29) rotate(-11.44)"/><circle class="cls-3" cx="216.11" cy="178.12" r="170.62"/><text class="cls-8" transform="translate(454.49 156.59)"><tspan x="0" y="0">Yarn</tspan><tspan x="0" y="132">Collector</tspan></text></g></svg>