<?xml version="1.0" encoding="UTF-8"?><svg id="Layer_2" xmlns="http://www.w3.org/2000/svg" viewBox="0 0 392.48 394.79"><defs><style>.cls-1{stroke-width:14px;}.cls-1,.cls-2,.cls-3,.cls-4,.cls-5,.cls-6,.cls-7,.cls-8{stroke-miterlimit:10;}.cls-1,.cls-2,.cls-4,.cls-6,.cls-8{stroke:#000;}.cls-1,.cls-3,.cls-4,.cls-5,.cls-6,.cls-7{fill:none;}.cls-1,.cls-6,.cls-8{stroke-linecap:round;}.cls-2{fill:#fff;}.cls-2,.cls-6,.cls-7,.cls-8{stroke-width:11px;}.cls-3{stroke:#eacad9;}.cls-3,.cls-4{stroke-width:15px;}.cls-9{fill:#f4d9e4;}.cls-10{fill:#f99bb6;}.cls-5{stroke-width:4px;}.cls-5,.cls-7{stroke:#fff;}</style></defs><g id="Layer_1-2"><circle class="cls-9" cx="178.12" cy="178.12" r="170.62"/><path class="cls-3" d="m82.72,33.44s173,150.11,205.34,270.19"/><path class="cls-3" d="m106.92,19.27s173,150.11,205.34,270.19"/><path class="cls-3" d="m62.58,52.4s173,150.11,205.34,270.19"/><path class="cls-3" d="m42.61,70.86s173,150.11,205.34,270.19"/><path class="cls-3" d="m197.61,109.5s58.07-40.46,55.41-84.72"/><path class="cls-3" d="m178.19,94.76c25.23-18.08,45.11-38.69,50.8-75.49"/><path class="cls-3" d="m219.23,123.73s58.07-40.46,55.41-84.72"/><path class="cls-3" d="m233.65,148.42s64.11-46.56,61.45-90.82"/><path class="cls-3" d="m92.51,322.59s49.91-39.55,89.47-95.79"/><path class="cls-3" d="m111.48,339.55s49.91-39.55,89.47-95.79"/><path class="cls-3" d="m140.56,348.74s39.12-28.04,78.67-84.27"/><path class="cls-3" d="m7.5,178.12s80.73,21.96,140.78,0"/><path class="cls-3" d="m7.5,148.22s57.2,25.28,117.26,3.32"/><path class="cls-3" d="m15.43,207.92s89.77,17.08,149.82-4.88"/><path class="cls-3" d="m15.43,229.65c1.06,4.26,104.4,26.13,162.7-2.85"/><path class="cls-3" d="m253.1,171.18s47.79-3.55,88-43.7"/><path class="cls-3" d="m268.25,193.03s32.44,1.09,77.33-33.76"/><path class="cls-3" d="m274.72,212.8s25.96,8.35,73.97-22.76"/><path class="cls-3" d="m241.34,149.33s47.79-3.55,88-43.7"/><path class="cls-3" d="m51.52,86.9s-22.07,41.6-16.09,69.69"/><path class="cls-3" d="m76.87,102.66s-20.76,32.21-14.78,60.3"/><path class="cls-3" d="m100.81,119.84s-16.46,12.58-10.48,40.67"/><path class="cls-3" d="m56.08,237.73s67.51,33.38,68.51,56.98"/><path class="cls-3" d="m111.48,241.57c1.9-.91,24.02,8.45,31.52,33.13"/><path class="cls-3" d="m26.75,252.27s73.06,33.38,74.06,56.98"/><path class="cls-3" d="m162.89,67.54c18.16-5.78,33.55-8.23,46.08-7.41"/><path class="cls-3" d="m143,46.59c15.98-9.5,64.16-16.31,79.1-11.36"/><path class="cls-3" d="m162.89,329.74s47.9-10.07,74.56-7.15"/><path class="cls-3" d="m188.07,303.63s14.24-6.76,40.91-3.84"/><path class="cls-3" d="m315.48,207.26c5.64,2.61.49,45.09,9.82,57.21"/><path class="cls-3" d="m295.1,86.9s21.36,22.46,20.38,27.11"/><path class="cls-3" d="m274.72,109.5s13.91.35,20.38,17.98"/><circle class="cls-4" cx="178.12" cy="178.12" r="170.62"/><ellipse class="cls-10" cx="116.95" cy="207.26" rx="16.21" ry="22.3" transform="translate(-111.47 274.03) rotate(-76.86)"/><ellipse class="cls-10" cx="289.73" cy="216.28" rx="22.3" ry="16.21" transform="translate(-37.14 61.75) rotate(-11.44)"/><circle class="cls-4" cx="178.12" cy="178.12" r="170.62"/><circle class="cls-8" cx="152.31" cy="140.37" r="21.18"/><circle class="cls-7" cx="155.45" cy="132.32" r="3.14"/><circle class="cls-5" cx="145.18" cy="146.51" r=".93"/><circle class="cls-8" cx="280" cy="139.14" r="21.18"/><circle class="cls-7" cx="283.15" cy="131.08" r="3.14"/><circle class="cls-5" cx="272.87" cy="145.28" r=".93"/><ellipse class="cls-2" cx="222.1" cy="201.93" rx="23.19" ry="19.4"/><path class="cls-1" d="m270.36,297.91c2.82-1.36,34.19,30.4,18.04,49.6-10.73,12.75,11.06,12.06,11.06,12.06"/><path class="cls-1" d="m113.29,325.41s-2.39,29.45-12.48,41.27l-7.97,9.35c-1.07,1.25-.66,3.18.83,3.88l16.52,7.88"/><path class="cls-6" d="m52.44,194.04c-1.61,10.38-3.39,28.55,0,41.83,2.89,11.32,9.34,18.96,12.72,22.34,1.26,1.26,3.07,1.67,4.71,1.09l11.87-4.16"/><path class="cls-6" d="m344.64,207.64s17.83,45.3,25.71,43.93,16.63-7.89,16.63-7.89"/></g></svg>