<?xml version="1.0" encoding="UTF-8"?><svg id="Layer_2" xmlns="http://www.w3.org/2000/svg" viewBox="0 0 427.89 380.13"><defs><style>.cls-1{stroke-width:14px;}.cls-1,.cls-2,.cls-3,.cls-4,.cls-5{fill:none;stroke-miterlimit:10;}.cls-1,.cls-3,.cls-4,.cls-5{stroke:#000;}.cls-1,.cls-4{stroke-linecap:round;}.cls-2{stroke:#cae7e8;}.cls-2,.cls-3{stroke-width:15px;}.cls-6{fill:#efd3dd;}.cls-7{fill:#e4eded;}.cls-4,.cls-5{stroke-width:11px;}</style></defs><g id="Layer_3"><circle class="cls-7" cx="213.94" cy="177" r="170.62"/></g><g id="Layer_2-2"><path class="cls-2" d="m336.9,51.21s-100.58,205.79-208.3,267.91"/><path class="cls-2" d="m356.81,70.94s-100.58,205.79-208.3,267.91"/><path class="cls-2" d="m313.4,36.61s-100.58,205.79-208.3,267.91"/><path class="cls-2" d="m290.42,22.06s-100.58,205.79-208.3,267.91"/><path class="cls-2" d="m292.94,181.78s54.04,45.71,96.12,31.76"/><path class="cls-2" d="m302.19,159.23c23.96,19.73,48.99,33.64,86.01,29.67"/><path class="cls-2" d="m284.75,206.34s54.04,45.71,96.12,31.76"/><path class="cls-2" d="m264.6,226.62s61.48,49.98,103.57,36.03"/><path class="cls-2" d="m59.99,135.02s51.06,38.06,115.58,61.83"/><path class="cls-2" d="m48.48,157.71s51.06,38.06,115.58,61.83"/><path class="cls-2" d="m47.07,188.17s37.15,30.59,101.67,54.36"/><path class="cls-2" d="m177.74,15.72s-.47,83.66,36.2,136.05"/><path class="cls-2" d="m206.63,8.03s-9.72,61.78,26.95,114.17"/><path class="cls-2" d="m150.98,31.04s6.58,91.14,43.24,143.53"/><path class="cls-2" d="m129.98,36.63c-3.84,2.12,1.59,107.61,44.6,156.49"/><path class="cls-2" d="m247.61,251.27s15.72,45.27,64.86,73.81"/><path class="cls-2" d="m230.39,271.53s7.29,31.63,52.51,66.05"/><path class="cls-2" d="m212.94,282.87s-1.4,27.23,41.02,65.63"/><path class="cls-2" d="m265.7,234.29s15.72,45.27,64.86,73.81"/><path class="cls-2" d="m277.21,34.8s-45.87-10.63-71.48,2.37"/><path class="cls-2" d="m268.5,63.35s-36.47-11.78-62.08,1.22"/><path class="cls-2" d="m258.06,90.9s-16.39-12.67-42,.34"/><path class="cls-2" d="m132.63,77.99s-14.9,73.83-37.45,80.86"/><path class="cls-2" d="m143.16,132.51c1.37,1.6-1.99,25.38-23.91,38.98"/><path class="cls-2" d="m111.03,53.38s-13.47,79.19-36.02,86.23"/><path class="cls-2" d="m324.56,137.45c10.26,16.06,16.58,30.31,19.01,42.62"/><path class="cls-2" d="m339.69,112.83c13.29,13,32.26,57.81,31.32,73.52"/><path class="cls-2" d="m71.18,204.87s22.05,43.7,26.08,70.22"/><path class="cls-2" d="m102.88,222.49s10.2,12.03,14.23,38.55"/><path class="cls-2" d="m228.78,320.83c-1.07,6.12-43.45,12.07-52.76,24.2"/><path class="cls-2" d="m339.85,270.19s-16.21,26.41-20.96,26.66"/><path class="cls-2" d="m312.77,256.31s3.23,13.53-12.14,24.32"/></g><g id="Layer_1-2"><circle class="cls-3" cx="216.11" cy="178.12" r="170.62"/><path class="cls-4" d="m114.85,178.12c10.07-31.19,37.06-31.73,47.89-1.25"/><path class="cls-5" d="m243.92,182.01c0,13.23-10.72,23.95-23.95,23.95s-23.95-10.72-23.95-23.95"/><path class="cls-4" d="m275.44,176.12c10.07-31.19,37.06-31.73,47.89-1.25"/><path class="cls-1" d="m128.29,308.98c-5.11-.12-16.26,36.05-7.8,52.98,7.52,15.02-17.03,10.55-17.03,10.55"/><path class="cls-1" d="m312.71,308.09c6.33-5.03,25.23,46.06,23.94,53.27-1.19,6.68,16.81-2.15,16.81-2.15"/><path class="cls-1" d="m386.68,190.04c5.55,2.45,23.14,17.06,30.78,29.13,3.31,5.24,4.96,11.15,1.54,16.4h0"/><path class="cls-1" d="m8.41,152.35c-3.36,9.24.32,17.72.32,17.72,3.04,3.48,6.66,7.09,10.96,10.56,16.8,13.56,35.02,17.89,46.23,19.44"/><ellipse class="cls-6" cx="114.85" cy="212.8" rx="16.21" ry="22.3" transform="translate(-118.49 276.27) rotate(-76.86)"/><ellipse class="cls-6" cx="327.72" cy="216.28" rx="22.3" ry="16.21" transform="translate(-36.38 69.29) rotate(-11.44)"/><circle class="cls-3" cx="216.11" cy="178.12" r="170.62"/></g></svg>